<svg id="Layer_1" data-name="Layer 1" xmlns="http://www.w3.org/2000/svg" viewBox="0 0 882.86 591.76"><defs><style>.cls-1{font-size:71.53px;font-family:BellMTBold, Bell MT;}.cls-1,.cls-2{fill:#b3b3b3;}.cls-3{fill:#999;}.cls-4{fill:#ccc;}</style></defs><text class="cls-1" transform="translate(432.73 58.91) scale(1.02 1)">DR.</text><path class="cls-2" d="M836.38,450.9l7.62-1.08h1.24l6.52,1.08v4.22H836.38Zm20.44-42.42h8.79l16.33,46.64H867.22l-11.65-36.7,3.15-5-13.63,41.71h-4.68Zm-7.62,29.25H869l1.83,4.51H848Zm11.5,13.38,7.91-1.07h6.23l9.52,1.07v4H860.7Z" transform="translate(-402.92 -216.21)"/><path class="cls-2" d="M924,448.39V452L918.93,453l2.72-11.44h6l-.29,11.23a32.29,32.29,0,0,1-15.6,3.72c-13.85,0-25.72-7.23-25.72-24.75,0-18,12.9-24.75,26.45-24.75a29,29,0,0,1,14.43,3.57l.29,11.38h-6l-2.79-11.59,5.06,1.14v3.79c-3.23-2.79-5.72-4.07-8.94-4.07-7,0-13.48,5.72-13.48,20.6s6.37,20.39,13.19,20.39C917.69,452.26,920.84,450.68,924,448.39Z" transform="translate(-402.92 -216.21)"/><path class="cls-2" d="M931.31,412.7v-4.22h24.1v4.22l-10.62,1.07h-2.42Zm13.48,37.12,9.52,1.08v4.22h-23V450.9l11.06-1.08Zm-8.35-19.17c0-7.37,0-14.81-.22-22.17H950.5c-.22,7.22-.22,14.66-.22,22.17v2.22c0,7.44,0,14.88.22,22.25H936.22c.22-7.23.22-14.67.22-22.18Zm7.32,9.3,25.94-31.47h5.86l-31.8,36.62Zm17.59-18.31,17.87,33.48h-15.9l-11.06-22.61Zm-2.71,29.26,10.25-1.08h1.91l10,1.08v4.22H958.64ZM961,412.7v-4.22h17v4.22l-8.65,1.07h-2.42Z" transform="translate(-402.92 -216.21)"/><path class="cls-2" d="M982.59,450.9l7.62-1.08h1.24L998,450.9v4.22H982.59ZM1003,408.48h8.79l16.33,46.64h-14.72l-11.65-36.7,3.15-5L991.3,455.12h-4.68Zm-7.62,29.25h19.78l1.83,4.51H994.16Zm11.5,13.38,7.91-1.07h6.23l9.52,1.07v4h-23.66Z" transform="translate(-402.92 -216.21)"/><path class="cls-2" d="M1033.71,412.7v-4.22h24.11v4.22l-11.14,1.07h-2.42Zm13,37.12,11.14,1.08v4.22h-24.11V450.9l10.55-1.08Zm-8-19.17c0-7.37,0-14.81-.22-22.17h14.94c-.22,7.22-.22,14.66-.22,22.17v2.22c0,7.44,0,14.88.22,22.25h-14.94c.22-7.23.22-14.67.22-22.18Zm7.25,2.72v-4.51h26.81v4.51Zm14.94-20.67v-4.22H1085v4.22l-10.92,1.07h-2.27Zm13.19,37.12L1085,450.9v4.22h-24.11V450.9l10.92-1.08Zm-8.57-19.17c0-7.37,0-14.81-.22-22.17h14.94c-.22,7.22-.22,14.66-.22,22.17v2.29c0,7.37,0,14.81.22,22.18h-14.94c.22-7.23.22-14.67.22-22.25Z" transform="translate(-402.92 -216.21)"/><path class="cls-3" d="M1041.53,799.71l4.19-3.09a14.53,14.53,0,0,0,12.37,6.6c5.87,0,10.29-3.45,10.29-8.83,0-3.47-2.36-5.62-6-7.71l-5.58-3.28c-4.12-2.44-7.41-5.76-7.41-11.06,0-7.06,6.31-13,15-13A17.25,17.25,0,0,1,1078,766l-3.72,3.28a13.46,13.46,0,0,0-10.31-5.11c-5.41,0-8.72,3.82-8.72,7.62,0,3.6,2.7,5.55,6.23,7.59l5.6,3.24c4.57,2.62,7.19,5.78,7.19,11,0,8.38-6.9,14.36-16.66,14.36A18.71,18.71,0,0,1,1041.53,799.71Z" transform="translate(-402.92 -216.21)"/><path class="cls-3" d="M1081.9,789.05c0-14.79,9.91-29.74,24.81-29.74a13.57,13.57,0,0,1,11.84,7l-4,2.93c-1.85-3-4.44-5.07-8.12-5.07-11.42,0-18.69,13-18.69,24.39,0,8.53,3.66,14.66,12.24,14.66,3.88,0,7.07-1.61,10.19-4.2l2.62,3.59a21.07,21.07,0,0,1-13.82,5.41C1088,808,1081.9,800.28,1081.9,789.05Z" transform="translate(-402.92 -216.21)"/><path class="cls-3" d="M1130.17,760.17h5.7l-4.13,19.8h21.72l4.07-19.8h5.7l-9.62,47h-5.7l4.6-22.29H1130.8l-4.55,22.29h-5.7Z" transform="translate(-402.92 -216.21)"/><path class="cls-3" d="M1167.94,788.32c0-14.32,9.61-29,23.41-29,10.71,0,16.61,7.79,16.61,19.65,0,14.33-9.61,29-23.41,29C1173.84,808,1167.94,800.19,1167.94,788.32Zm34.21-8.91c0-9.17-3.47-15.29-11.11-15.29-10.33,0-17.29,12.76-17.29,23.76,0,9.16,3.47,15.29,11.11,15.29C1195.19,803.17,1202.15,790.41,1202.15,779.41Z" transform="translate(-402.92 -216.21)"/><path class="cls-3" d="M1214.31,788.32c0-14.32,9.6-29,23.41-29,10.71,0,16.61,7.79,16.61,19.65,0,14.33-9.61,29-23.41,29C1220.21,808,1214.31,800.19,1214.31,788.32Zm34.21-8.91c0-9.17-3.47-15.29-11.11-15.29-10.33,0-17.29,12.76-17.29,23.76,0,9.16,3.47,15.29,11.1,15.29C1241.55,803.17,1248.52,790.41,1248.52,779.41Z" transform="translate(-402.92 -216.21)"/><path class="cls-3" d="M1268.46,760.17h5.71l-8.64,42.24h20.25l-1,4.71h-26Z" transform="translate(-402.92 -216.21)"/><path class="cls-4" d="M402.92,557.62H416.4l7.18,19c.88,2.57,1.61,5.43,2.49,8.15h.29c.88-2.72,1.61-5.58,2.49-8.15l6.89-19h13.48v46.5H437.79V590.38c0-4.72,1-11.94,1.61-16.59h-.29l-4,11.16-5.86,15.38h-6.74L416.69,585l-3.81-11.16h-.29c.59,4.65,1.61,11.87,1.61,16.59v13.74H402.92Z" transform="translate(-402.92 -216.21)"/><path class="cls-4" d="M459.76,557.62h30.77v10.3H472.36v7.3h15.53v10.3H472.36v8.3h18.9v10.3h-31.5Z" transform="translate(-402.92 -216.21)"/><path class="cls-4" d="M500.49,557.62H514l7.18,19c.88,2.57,1.61,5.43,2.49,8.15h.29c.88-2.72,1.61-5.58,2.49-8.15l6.89-19h13.48v46.5H535.36V590.38c0-4.72,1-11.94,1.61-16.59h-.29l-4,11.16-5.86,15.38h-6.74L514.26,585l-3.81-11.16h-.29c.59,4.65,1.61,11.87,1.61,16.59v13.74H500.49Z" transform="translate(-402.92 -216.21)"/><path class="cls-4" d="M555.28,580.65c0-15.3,8.94-23.89,22.12-23.89s22.13,8.66,22.13,23.89S590.59,605,577.4,605,555.28,596,555.28,580.65Zm31.35,0c0-8.44-3.51-13.3-9.23-13.3s-9.23,4.86-9.23,13.3,3.52,13.74,9.23,13.74S586.63,589.09,586.63,580.65Z" transform="translate(-402.92 -216.21)"/><path class="cls-4" d="M608,557.62h18c10.26,0,19.05,3.43,19.05,15,0,11.23-8.79,15.88-19.05,15.88h-5.42v15.6H608Zm17.14,21.17c5,0,7.62-2.14,7.62-6.15s-2.64-5.29-7.62-5.29h-4.54v11.44Zm-1.39,6.51,8.5-8.15,15.46,27H633.66Z" transform="translate(-402.92 -216.21)"/><path class="cls-4" d="M654.17,557.62h12.6v46.5h-12.6Z" transform="translate(-402.92 -216.21)"/><path class="cls-4" d="M685.81,557.62h15.24l14.5,46.5H702.22l-5.42-22.61c-1.17-4.43-2.34-10.08-3.51-14.73H693c-1,4.72-2.2,10.3-3.37,14.73l-5.42,22.61H671.31Zm-4.1,27.11H705v9.52h-23.3Z" transform="translate(-402.92 -216.21)"/><path class="cls-4" d="M719.36,557.62H732v36.2h18v10.3H719.36Z" transform="translate(-402.92 -216.21)"/></svg>