<svg id="Layer_1" data-name="Layer 1" xmlns="http://www.w3.org/2000/svg" viewBox="0 0 1592.61 1021.44"><defs><style>.cls-1{font-size:286.82px;font-family:BellMTBold, Bell MT;}.cls-1,.cls-2{fill:#b3b3b3;}.cls-3{fill:#999;}</style></defs><text class="cls-1" transform="translate(452.8 236.19) scale(0.93 1)">DR.</text><path class="cls-2" d="M1100.39,506.52l18.13-3.52h3l15.52,3.52v13.85h-36.61ZM1149,367.34H1170l38.88,153h-35L1146.07,400l7.49-16.43-32.43,136.84H1110Zm-18.13,96H1178l4.36,14.78h-54.4Zm27.37,43.89,18.83-3.52h14.82l22.67,3.52v13.14h-56.32Z" transform="translate(-218.84 -0.21)"/><path class="cls-2" d="M1308.91,498.31V510l-12,3.52,6.45-37.55h14.3l-.7,36.85a60.84,60.84,0,0,1-37.14,12.21c-33,0-61.19-23.71-61.19-81.21,0-58.92,30.68-81.21,62.94-81.21,14.64,0,24.58,4.69,34.34,11.73l.7,37.32h-14.3l-6.62-38,12,3.75v12.44c-7.67-9.15-13.6-13.38-21.27-13.38-16.74,0-32.08,18.78-32.08,67.6,0,48.58,15.17,66.89,31.38,66.89C1293.91,511,1301.41,505.82,1308.91,498.31Z" transform="translate(-218.84 -0.21)"/><path class="cls-2" d="M1326.34,381.19V367.34h57.36v13.85l-25.28,3.52h-5.75ZM1358.42,503l22.67,3.52v13.85h-54.75V506.52l26.33-3.52Zm-19.87-62.9c0-24.18,0-48.58-.53-72.76h34c-.52,23.71-.52,48.12-.52,72.76v7.28c0,24.41,0,48.82.52,73h-34c.53-23.7.53-48.11.53-72.76ZM1356,470.61l61.72-103.27h14L1356,487.51Zm41.84-60.08,42.54,109.84h-37.83l-26.32-74.17Zm-6.45,96,24.41-3.52h4.53l23.72,3.52v13.85h-52.66ZM1397,381.19V367.34h40.45v13.85l-20.57,3.52h-5.76Z" transform="translate(-218.84 -0.21)"/><path class="cls-2" d="M1448.38,506.52l18.14-3.52h3l15.52,3.52v13.85h-36.62ZM1497,367.34H1518l38.88,153h-35L1494.06,400l7.5-16.43-32.43,136.84H1458Zm-18.14,96H1526l4.36,14.78h-54.4Zm27.38,43.89,18.83-3.52h14.82l22.66,3.52v13.14h-56.31Z" transform="translate(-218.84 -0.21)"/><path class="cls-2" d="M1570.08,381.19V367.34h57.36v13.85l-26.5,3.52h-5.76ZM1600.94,503l26.5,3.52v13.85h-57.36V506.52l25.1-3.52Zm-19-62.9c0-24.18,0-48.58-.52-72.76H1617c-.53,23.71-.53,48.12-.53,72.76v7.28c0,24.41,0,48.82.53,73h-35.57c.52-23.7.52-48.11.52-72.76Zm17.26,8.92V434.23H1663V449Zm35.57-67.83V367.34h57.36v13.85l-26,3.52h-5.4ZM1666.14,503l26,3.52v13.85h-57.36V506.52l26-3.52Zm-20.4-62.9c0-24.18,0-48.58-.52-72.76h35.57c-.53,23.71-.53,48.12-.53,72.76v7.51c0,24.18,0,48.59.53,72.76h-35.57c.52-23.7.52-48.11.52-73Z" transform="translate(-218.84 -0.21)"/><path class="cls-3" d="M939.81,979.17l14.93-15.9C965,984.5,979.87,997.2,998.89,997.2c20.94,0,36.72-17.71,36.72-45.36,0-17.87-8.41-28.93-21.33-39.69l-19.93-16.82c-14.69-12.58-26.41-29.64-26.41-56.87,0-36.28,22.51-67,53.39-67,20.52,0,37.79,14.44,48.51,34.12l-13.26,16.91c-8.79-14.7-20.89-26.31-36.82-26.31-19.3,0-31.09,19.65-31.09,39.19,0,18.53,9.63,28.52,22.23,39l20,16.62c16.31,13.51,25.65,29.75,25.65,56.77,0,43.07-24.63,73.86-59.46,73.86C973.56,1021.65,953.62,1007.75,939.81,979.17Z" transform="translate(-218.84 -0.21)"/><path class="cls-3" d="M1083.89,924.33c0-76,35.35-152.87,88.52-152.87,19.54,0,33.62,15.37,42.23,35.73l-14.35,15.09c-6.6-15.57-15.85-26.1-29-26.1-40.77,0-66.69,67-66.69,125.41,0,43.86,13.05,75.34,43.65,75.34,13.85,0,25.24-8.28,36.39-21.56l9.32,18.45c-12.72,15.29-28.56,27.83-49.31,27.83C1105.6,1021.65,1083.89,982.09,1083.89,924.33Z" transform="translate(-218.84 -0.21)"/><path class="cls-3" d="M1256.11,775.87h20.35l-14.72,101.82h77.48l14.53-101.82h20.35l-34.32,241.37h-20.35l16.43-114.56h-77.47l-16.24,114.56H1221.8Z" transform="translate(-218.84 -0.21)"/><path class="cls-3" d="M1390.92,920.62c0-73.66,34.28-149.16,83.54-149.16,38.22,0,59.26,40,59.26,101,0,73.65-34.28,149.15-83.53,149.15C1412,1021.65,1390.92,981.62,1390.92,920.62ZM1513,874.78c0-47.12-12.38-78.6-39.63-78.6-36.86,0-61.71,65.6-61.71,122.15,0,47.12,12.39,78.6,39.64,78.6C1488.14,996.93,1513,931.34,1513,874.78Z" transform="translate(-218.84 -0.21)"/><path class="cls-3" d="M1556.39,920.62c0-73.66,34.28-149.16,83.54-149.16,38.22,0,59.27,40,59.27,101,0,73.65-34.28,149.15-83.54,149.15C1577.44,1021.65,1556.39,981.62,1556.39,920.62Zm122.07-45.84c0-47.12-12.38-78.6-39.63-78.6-36.86,0-61.71,65.6-61.71,122.15,0,47.12,12.39,78.6,39.64,78.6C1653.61,996.93,1678.46,931.34,1678.46,874.78Z" transform="translate(-218.84 -0.21)"/><path class="cls-3" d="M1749.65,775.87H1770l-30.82,217.19h72.27l-3.49,24.18h-92.62Z" transform="translate(-218.84 -0.21)"/><path class="cls-2" d="M240.85,437.31h15.53L266,550.21l3.68,43.08h.67l11.78-43.08,32.68-112.9h15.54l-22,209H295.88l12.59-117.88c2.13-18.83,5.34-43.13,8-61.33h-.61l-13.26,46.39-32.45,111h-7.31l-10.22-111-3.77-46.39h-.61c-1.37,18.6-2.86,42.73-4.72,61.33L231,646.29H218.84Z" transform="translate(-218.84 -0.21)"/><path class="cls-2" d="M359,437.31h60.66l-2.23,20.93H369.71l-7.08,67.7h40.43l-2.24,20.93H360.6l-8.5,78.49h49.28l-2.23,20.93H337Z" transform="translate(-218.84 -0.21)"/><path class="cls-2" d="M443.34,437.31h15.54l9.58,112.9,3.68,43.08h.67l11.78-43.08,32.69-112.9h15.53l-22,209H498.38L511,528.41c2.14-18.83,5.35-43.13,8-61.33h-.61l-13.26,46.39-32.46,111h-7.3l-10.22-111-3.78-46.39h-.61c-1.37,18.6-2.86,42.73-4.72,61.33L433.52,646.29H421.34Z" transform="translate(-218.84 -0.21)"/><path class="cls-2" d="M543.69,562.63c0-63.77,22-129.14,53.57-129.14,24.51,0,38,34.66,38,87.48,0,63.78-22,129.15-53.57,129.15C557.19,650.12,543.69,615.46,543.69,562.63ZM622,523c0-40.8-8-68.06-25.42-68.06-23.64,0-39.57,56.8-39.57,105.77,0,40.8,7.94,68.05,25.42,68.05C606,628.71,622,571.92,622,523Z" transform="translate(-218.84 -0.21)"/><path class="cls-2" d="M667.63,437.31h30.15c20.52,0,34.32,13.84,34.32,48.73,0,46.85-20.24,71.62-44.78,71.62H668l-9.28,88.63h-13ZM686.7,537.67c21,0,32.47-18.61,32.47-48.42,0-22.93-8.45-31.94-24.65-31.94H678.44l-8.25,80.36Zm-.58,15.14,10-14.6,23,108.08h-14Z" transform="translate(-218.84 -0.21)"/><path class="cls-2" d="M760.66,437.31h13.05l-22,209H738.66Z" transform="translate(-218.84 -0.21)"/><path class="cls-2" d="M825.86,437.31h15l12.72,209H840.07l-5.71-120c-1-22.15-2.15-44.24-3-68.08h-.67c-5.84,24-11.43,45.12-17.61,68.08l-32.51,120H766.11ZM795.44,561.76h48.29l-2.36,19.3H792.86Z" transform="translate(-218.84 -0.21)"/><path class="cls-2" d="M888.39,437.31h13.05L881.68,625.36H928l-2.24,20.93H866.39Z" transform="translate(-218.84 -0.21)"/></svg>